<?xml version="1.0" standalone="no"?>
<!DOCTYPE svg PUBLIC "-//W3C//DTD SVG 20010904//EN"
 "http://www.w3.org/TR/2001/REC-SVG-20010904/DTD/svg10.dtd">
<svg version="1.0" xmlns="http://www.w3.org/2000/svg"
 width="279.000000pt" height="436.000000pt" viewBox="0 0 279.000000 436.000000"
 preserveAspectRatio="xMidYMid meet">

<g transform="translate(0.000000,436.000000) scale(0.100000,-0.100000)"
fill="#000000" stroke="none">
<path d="M1200 4171 c-289 -63 -519 -246 -650 -516 -96 -196 -93 -174 -97
-867 l-4 -608 35 0 36 0 0 579 c0 622 2 654 53 793 60 166 200 342 347 436
140 91 300 136 480 135 140 0 226 -16 347 -63 271 -104 479 -365 532 -664 7
-37 11 -276 11 -633 l0 -573 35 0 35 0 0 559 c0 453 -3 575 -15 645 -67 386
-339 678 -717 772 -101 25 -326 28 -428 5z"/>
<path d="M2081 3330 c-34 -39 -69 -87 -80 -108 -61 -120 -66 -249 -13 -368 17
-38 33 -89 35 -113 l5 -43 -31 30 c-34 33 -38 40 -112 197 -65 137 -137 209
-251 253 -86 33 -184 52 -184 35 0 -6 22 -44 48 -84 26 -41 60 -95 74 -120 71
-122 172 -214 274 -249 32 -11 66 -28 77 -38 19 -16 16 -17 -59 -22 -72 -5
-81 -3 -142 28 -71 35 -109 39 -190 18 -153 -41 -241 -149 -250 -304 -4 -77
-2 -87 27 -147 54 -109 157 -163 292 -152 205 17 346 195 310 393 -9 49 -17
65 -48 93 l-38 33 70 -4 c114 -8 155 -41 198 -156 17 -46 21 -81 21 -184 1
-124 2 -128 22 -128 28 0 34 23 34 130 0 88 -3 101 -64 308 -20 68 -36 143
-36 168 0 27 15 84 39 146 46 122 61 209 61 352 0 86 -3 106 -15 106 -8 0 -41
-32 -74 -70z m10 -111 c-26 -68 -44 -192 -36 -241 5 -25 3 -38 -4 -38 -14 0
-14 139 0 199 11 49 50 144 56 138 2 -3 -5 -29 -16 -58z m-409 -166 c68 -70
205 -253 189 -253 -5 0 -40 42 -77 93 -38 50 -97 122 -133 160 -35 37 -60 67
-55 67 5 0 39 -30 76 -67z m18 -359 c44 -18 48 -25 25 -44 -8 -7 -15 -19 -15
-27 0 -21 29 -27 49 -9 24 22 33 20 63 -11 79 -83 60 -245 -40 -335 -52 -47
-84 -63 -155 -78 -177 -36 -320 86 -304 260 9 103 64 182 159 229 71 36 152
41 218 15z"/>
<path d="M450 1972 c-24 -4 -24 -4 10 -32 l35 -28 1 -229 c2 -293 -2 -340 -33
-369 -12 -11 -23 -24 -23 -28 0 -10 342 -7 381 4 50 14 99 49 126 89 32 47 32
139 1 189 -22 35 -84 71 -125 72 -30 0 -29 16 1 24 32 8 83 52 101 87 40 77
-11 176 -108 208 -32 11 -313 20 -367 13z m318 -56 c42 -22 55 -50 55 -116 0
-99 -44 -140 -150 -140 l-63 0 0 141 0 142 63 -5 c35 -3 77 -13 95 -22z m20
-316 c70 -32 92 -119 52 -208 -25 -54 -64 -72 -160 -72 l-70 0 0 150 0 150 68
0 c45 0 81 -7 110 -20z"/>
<path d="M1060 1972 c-5 -2 6 -18 25 -36 35 -33 35 -34 35 -117 -1 -46 -7
-174 -14 -283 -13 -196 -14 -200 -40 -222 -14 -13 -26 -26 -26 -29 0 -3 38 -5
84 -5 82 0 118 12 76 25 -49 16 -52 35 -44 299 4 135 11 246 15 246 5 0 9 -6
9 -12 0 -39 210 -558 225 -558 7 0 26 36 43 83 17 45 64 168 106 271 42 104
77 196 77 205 4 55 18 -107 24 -286 l7 -213 -32 -30 -32 -30 116 0 c64 0 116
2 116 5 0 2 -11 15 -24 28 -28 28 -31 57 -46 371 -9 184 -8 213 6 233 8 13 22
27 30 30 38 14 6 24 -72 21 l-86 -3 -89 -225 c-48 -124 -93 -236 -100 -250
-12 -27 -1 -52 -164 370 l-45 115 -85 0 c-47 0 -89 -1 -95 -3z"/>
<path d="M1896 1972 c-22 -5 -20 -19 5 -27 11 -4 24 -18 30 -32 14 -36 12
-549 -2 -576 -7 -12 -21 -29 -33 -39 -20 -18 -15 -18 174 -16 179 3 198 5 236
25 104 56 140 166 83 258 -22 37 -50 55 -109 70 l-45 12 35 15 c44 19 96 77
105 116 14 64 -25 135 -95 173 -17 10 -78 16 -196 19 -94 3 -179 4 -188 2z
m320 -57 c34 -22 47 -52 47 -109 1 -100 -47 -146 -153 -146 l-60 0 0 141 0
142 71 -6 c39 -3 82 -13 95 -22z m22 -319 c58 -30 78 -115 46 -195 -22 -55
-76 -81 -167 -81 l-67 0 0 151 0 152 78 -5 c45 -3 91 -12 110 -22z"/>
<path d="M1890 1050 c-12 -8 -12 -10 3 -16 15 -5 17 -23 17 -142 0 -112 -3
-139 -17 -154 -15 -17 -14 -18 37 -18 51 0 52 1 37 18 -22 24 -23 92 -2 92 8
0 31 -25 51 -55 33 -50 40 -55 73 -55 36 0 36 1 15 18 -11 9 -36 39 -54 65
-33 46 -34 49 -18 75 9 15 30 37 47 48 l31 22 -41 4 c-46 4 -53 0 -37 -19 9
-11 5 -20 -17 -43 -16 -17 -37 -30 -47 -30 -16 0 -18 10 -18 100 0 97 -1 100
-22 100 -13 0 -30 -4 -38 -10z"/>
<path d="M623 1034 c-4 -11 1 -22 12 -31 16 -11 21 -11 33 1 8 8 12 22 9 30
-8 21 -46 21 -54 0z"/>
<path d="M353 1022 c24 -26 25 -269 2 -278 -8 -4 -15 -11 -15 -16 0 -6 35 -9
91 -6 85 3 92 5 115 31 13 15 24 41 24 56 0 33 -34 81 -58 82 -13 0 -12 3 5
11 48 23 51 103 4 127 -11 6 -57 11 -102 11 -79 0 -81 -1 -66 -18z m137 -22
c26 -26 25 -55 -1 -81 -28 -28 -74 -23 -72 9 0 12 1 38 2 57 1 30 4 35 26 35
14 0 34 -9 45 -20z m12 -147 c42 -38 10 -103 -51 -103 l-36 0 0 60 0 60 34 0
c19 0 43 -7 53 -17z"/>
<path d="M1088 1028 c8 -8 12 -55 12 -145 0 -110 -3 -135 -15 -139 -30 -12
-14 -24 30 -24 48 0 55 6 30 24 -13 9 -15 33 -13 131 l3 120 49 -130 c27 -71
52 -134 56 -138 7 -8 100 204 100 229 0 8 5 14 10 14 6 0 10 -43 10 -110 0
-89 -3 -112 -15 -116 -31 -12 -13 -24 37 -24 49 0 50 1 35 18 -14 15 -17 42
-17 148 0 88 4 134 12 142 9 9 3 12 -27 12 l-40 0 -44 -111 c-28 -71 -46 -106
-52 -98 -4 7 -25 57 -46 111 l-38 98 -44 0 c-35 0 -42 -3 -33 -12z"/>
<path d="M2387 965 c-34 -29 -36 -33 -17 -38 18 -5 20 -13 20 -94 0 -56 4 -93
12 -101 17 -17 64 -15 82 4 23 22 20 37 -5 24 -40 -22 -49 -7 -49 80 l0 80 30
0 c20 0 30 5 30 15 0 10 -10 15 -29 15 -24 0 -30 5 -33 24 l-3 24 -38 -33z"/>
<path d="M633 947 c-34 -10 -45 -27 -18 -27 12 0 15 -17 15 -90 0 -53 -4 -90
-10 -90 -5 0 -10 -4 -10 -10 0 -5 20 -10 45 -10 41 0 61 13 34 22 -8 3 -11 37
-10 105 1 56 -2 103 -6 106 -4 2 -23 -1 -40 -6z"/>
<path d="M764 926 c-29 -29 -34 -41 -34 -80 0 -26 7 -60 15 -76 46 -88 178
-56 192 47 16 118 -94 188 -173 109z m101 -11 c48 -48 26 -175 -30 -175 -59 0
-86 129 -38 183 22 23 39 21 68 -8z"/>
<path d="M1515 950 c-34 -13 -51 -39 -36 -53 10 -9 16 -7 28 11 28 41 83 23
83 -28 0 -22 -5 -26 -32 -28 -70 -5 -109 -53 -84 -103 15 -30 79 -39 106 -14
16 15 18 15 24 0 4 -11 15 -15 33 -13 28 3 45 28 19 28 -13 0 -16 13 -16 70 0
119 -43 164 -125 130z m75 -150 c0 -34 -4 -41 -25 -46 -53 -13 -74 48 -25 73
41 21 50 16 50 -27z"/>
<path d="M1730 953 c-8 -2 -21 -7 -29 -9 -11 -4 -11 -8 3 -22 23 -26 23 -158
-1 -184 -15 -17 -14 -18 35 -18 56 0 60 3 37 26 -19 20 -20 94 -1 139 15 34
38 46 51 25 11 -17 33 -11 40 11 14 44 -52 54 -84 13 l-21 -27 0 27 c0 26 -3
28 -30 19z"/>
<path d="M2184 941 c-60 -37 -69 -143 -17 -195 33 -33 98 -36 131 -6 36 34 26
54 -12 25 -11 -8 -30 -15 -43 -15 -28 0 -63 36 -63 65 0 20 5 21 70 21 l70 -1
0 33 c0 24 -9 42 -29 63 -34 34 -64 37 -107 10z m80 -23 c30 -43 21 -58 -34
-58 -57 0 -63 11 -29 54 25 32 43 33 63 4z"/>
<path d="M1308 563 c-31 -5 -37 -18 -13 -27 12 -4 15 -30 15 -146 0 -87 -4
-140 -10 -140 -5 0 -10 -4 -10 -10 0 -5 21 -10 47 -10 44 0 45 1 30 18 -22 24
-23 92 -2 92 8 0 31 -25 50 -55 30 -47 40 -55 66 -55 l30 0 -50 66 -51 66 23
28 c12 16 32 34 45 41 35 19 26 29 -25 29 -44 -1 -47 -2 -29 -15 19 -15 19
-16 -14 -50 -54 -56 -60 -50 -60 70 0 58 -3 104 -7 104 -5 -1 -20 -4 -35 -6z"/>
<path d="M600 541 c0 -5 7 -11 15 -15 12 -4 15 -30 15 -141 0 -83 -4 -135 -10
-135 -5 0 -10 -4 -10 -10 0 -16 147 -12 179 5 63 32 63 116 0 147 -19 10 -27
18 -18 18 27 0 51 35 47 72 -4 47 -50 68 -145 68 -40 0 -73 -4 -73 -9z m156
-36 c40 -40 13 -95 -48 -95 -27 0 -28 1 -28 54 0 54 3 59 43 65 4 0 19 -10 33
-24z m15 -141 c23 -21 24 -52 3 -82 -11 -16 -25 -22 -55 -22 l-39 0 0 66 0 67
36 -6 c20 -3 45 -14 55 -23z"/>
<path d="M941 457 c-29 -15 -61 -72 -61 -108 0 -42 20 -86 45 -103 37 -24 97
-21 123 7 28 30 19 40 -17 20 -35 -21 -74 -11 -89 22 -23 50 -18 55 58 55 64
0 70 2 70 20 0 29 -27 78 -49 90 -26 13 -51 13 -80 -3z m67 -20 c6 -6 13 -24
17 -40 7 -27 7 -27 -44 -27 -44 0 -51 3 -51 20 0 23 33 60 54 60 7 0 18 -6 24
-13z"/>
<path d="M1195 444 c-24 -26 -25 -26 -25 -5 0 17 -6 21 -29 21 -33 0 -51 -17
-27 -26 25 -9 23 -172 -1 -190 -16 -12 -11 -13 35 -14 50 0 68 12 37 24 -10 4
-15 20 -15 54 0 87 32 140 66 111 21 -18 47 7 33 32 -14 27 -46 24 -74 -7z"/>
<path d="M1583 450 c-33 -20 -42 -43 -22 -55 6 -4 17 2 25 14 28 39 84 21 84
-26 0 -20 -5 -23 -34 -23 -66 0 -113 -71 -76 -115 16 -20 74 -19 94 1 15 14
17 14 22 0 7 -18 49 -22 60 -5 4 7 -1 16 -10 21 -13 7 -16 25 -16 84 0 66 -3
78 -25 99 -29 30 -59 31 -102 5z m85 -141 c-4 -39 -30 -59 -55 -43 -41 26 -18
74 35 74 20 0 23 -4 20 -31z"/>
<path d="M1864 445 c-30 -30 -32 -30 -30 -8 1 21 -32 28 -54 12 -11 -8 -12
-12 -2 -16 15 -6 17 -183 2 -183 -5 0 -10 -4 -10 -10 0 -5 20 -10 45 -10 25 0
45 5 45 10 0 6 -4 10 -10 10 -14 0 -13 126 1 153 21 40 47 47 73 21 12 -11 16
-36 16 -95 0 -46 -4 -79 -10 -79 -5 0 -10 -4 -10 -10 0 -5 20 -10 45 -10 44 0
60 12 30 24 -12 4 -15 24 -15 91 0 72 -3 88 -20 105 -27 27 -66 25 -96 -5z"/>
<path d="M2105 461 c-44 -19 -60 -50 -60 -118 0 -59 3 -67 28 -89 19 -16 40
-24 65 -24 41 0 82 23 82 45 0 12 -5 11 -28 -2 -41 -24 -80 -11 -98 32 -8 19
-14 37 -14 40 0 3 34 5 75 5 l75 0 -6 28 c-16 77 -60 107 -119 83z m57 -28
c10 -9 18 -27 18 -40 0 -21 -4 -23 -50 -23 l-50 0 11 28 c9 24 34 52 48 52 2
0 13 -7 23 -17z"/>
</g>
</svg>
