<?xml version="1.0" standalone="no"?>
<!DOCTYPE svg
          PUBLIC "-//W3C//DTD SVG 20010904//EN" "http://www.w3.org/TR/2001/REC-SVG-20010904/DTD/svg10.dtd">
<svg version="1.0"
     xmlns="http://www.w3.org/2000/svg"
     width="844.000000pt"
     height="340.000000pt"
     viewBox="0 0 844.000000 340.000000"
     preserveAspectRatio="xMidYMid meet">

    <g transform="translate(0.000000,340.000000) scale(0.100000,-0.100000)"
       fill="#ffffff"
       stroke="none">
        <path d="M3976 3299 c-722 -93 -1285 -558 -1462 -1209 -52 -188 -55 -228 -61
-692 l-5 -438 36 0 36 0 0 380 c0 210 5 424 11 478 38 351 180 657 424 911
271 282 588 439 1003 497 148 20 480 15 617 -11 394 -73 717 -251 971 -536
176 -197 302 -439 358 -689 l14 -65 -53 -48 c-67 -59 -121 -162 -137 -261 -27
-162 41 -346 159 -427 l43 -30 0 -98 c0 -54 2 -100 5 -103 3 -3 17 -3 30 0 24
4 25 7 25 88 l0 83 83 -6 c234 -16 441 145 480 373 20 116 -25 257 -115 359
-49 56 -81 71 -166 81 l-62 7 0 79 0 79 46 -36 c95 -72 103 -24 10 58 -60 53
-67 63 -91 140 -14 45 -29 88 -32 96 -8 19 112 -64 169 -117 27 -25 73 -82
104 -128 75 -111 111 -142 331 -287 103 -68 212 -142 242 -165 30 -23 58 -39
63 -36 28 18 -8 178 -68 302 -88 182 -221 276 -460 326 -66 14 -132 29 -145
35 -13 5 -94 55 -181 112 -86 57 -174 114 -195 126 l-38 22 121 1 c161 0 243
27 435 141 30 18 88 46 129 63 133 55 137 64 42 93 -43 14 -92 18 -203 18
l-146 0 -84 -42 c-51 -25 -114 -68 -159 -108 -41 -37 -88 -73 -103 -81 -55
-29 -119 -29 -234 1 l-108 29 -93 97 c-287 303 -637 478 -1065 534 -128 16
-405 18 -521 4z m2612 -498 c8 -5 -18 -10 -67 -14 -94 -7 -208 -43 -298 -94
-35 -19 -66 -33 -69 -31 -5 6 55 47 112 76 94 48 287 86 322 63z m-747 -256
c74 -30 169 -95 208 -142 52 -63 93 -198 107 -354 l7 -69 -54 0 c-30 -1 -71
-7 -92 -14 -28 -11 -39 -11 -42 -3 -2 7 -13 51 -24 99 -35 150 -102 304 -207
477 l-26 43 33 -7 c19 -4 59 -17 90 -30z m724 -390 c108 -53 226 -146 318
-248 37 -41 67 -78 67 -82 0 -4 -48 39 -106 94 -125 119 -201 176 -313 231
-44 23 -81 43 -81 46 0 12 33 0 115 -41z m-453 -268 c-63 -65 -26 -107 39 -46
90 84 237 23 311 -129 30 -60 33 -75 33 -157 0 -79 -3 -97 -29 -150 -64 -129
-189 -212 -334 -222 -59 -4 -92 -1 -130 11 -148 49 -248 247 -212 420 17 84
74 189 121 227 52 41 144 78 193 79 l40 0 -32 -33z" />
        <path d="M2895 2139 c-4 -5 10 -25 32 -43 l38 -34 3 -388 c3 -419 2 -431 -49
-461 -16 -10 -28 -22 -26 -28 3 -6 86 -10 238 -9 191 0 244 3 291 17 124 37
190 125 192 252 1 76 -14 117 -62 167 -26 29 -116 68 -155 68 -16 0 -6 9 33
31 100 55 143 116 143 204 1 114 -74 189 -221 221 -82 17 -447 20 -457 3z
m441 -65 c58 -29 78 -63 82 -143 5 -81 -10 -135 -47 -174 -39 -42 -83 -57
-172 -57 l-79 0 0 201 0 202 89 -5 c58 -4 102 -12 127 -24z m-16 -435 c99 -21
146 -93 138 -216 -5 -84 -29 -136 -77 -165 -30 -19 -53 -23 -148 -27 l-113 -3
0 211 0 211 75 0 c40 0 97 -5 125 -11z" />
        <path d="M3725 2140 c-4 -6 11 -27 34 -46 l41 -36 0 -177 c0 -258 -18 -577
-35 -618 -8 -18 -28 -41 -45 -51 -16 -9 -28 -21 -27 -27 5 -14 212 -18 238 -4
20 10 20 12 -15 35 -19 13 -40 33 -46 44 -11 21 -13 260 -3 528 l6 182 87
-233 c133 -354 209 -544 226 -558 9 -7 18 -9 24 -3 5 5 40 95 78 199 85 230
221 587 226 592 10 10 40 -648 31 -687 -4 -17 -23 -42 -46 -61 -21 -17 -37
-35 -33 -40 7 -11 301 -12 308 -1 3 5 -10 22 -28 39 -43 37 -42 34 -61 431
-21 435 -22 407 20 449 19 19 35 39 35 44 0 6 -47 8 -112 7 l-111 -3 -44 -120
c-67 -187 -225 -585 -232 -585 -4 0 -68 159 -143 353 l-136 352 -115 3 c-76 2
-118 -1 -122 -8z" />
        <path d="M4847 2143 c-13 -12 -7 -23 23 -38 59 -31 60 -37 60 -445 0 -402 -2
-422 -54 -449 -56 -31 -24 -36 210 -36 253 0 309 10 389 65 77 53 124 187 95
276 -26 81 -99 142 -194 159 l-38 8 53 29 c69 37 97 64 120 113 64 139 -33
280 -216 314 -63 12 -437 15 -448 4z m460 -79 c52 -39 67 -70 71 -145 5 -89
-16 -149 -66 -187 -32 -25 -44 -27 -136 -30 l-101 -4 3 197 3 197 99 -4 c80
-3 105 -8 127 -24z m19 -445 c66 -32 94 -87 94 -180 0 -154 -64 -208 -247
-209 l-102 0 3 208 c2 114 4 209 5 211 0 2 46 2 100 -1 78 -4 109 -10 147 -29z" />
        <path d="M3678 737 c-52 -10 -60 -20 -28 -37 19 -10 20 -21 20 -205 0 -185 -1
-194 -20 -200 -38 -12 -9 -25 56 -25 67 0 78 7 44 28 -16 10 -20 23 -20 73 0
52 2 60 18 57 9 -2 40 -38 67 -80 l50 -77 50 0 50 0 -27 22 c-15 12 -49 53
-77 91 -39 54 -48 73 -41 87 11 20 99 99 111 99 5 0 9 5 9 10 0 6 -27 10 -60
10 -57 0 -78 -11 -45 -24 12 -4 13 -10 6 -24 -19 -37 -69 -82 -90 -82 -20 0
-21 6 -23 143 l-3 142 -47 -8z" />
        <path d="M5693 737 c-45 -10 -57 -31 -23 -40 19 -5 20 -14 20 -193 0 -179 -1
-189 -22 -211 l-21 -23 66 0 c63 0 86 11 52 24 -21 8 -22 136 -1 136 17 0 50
-41 91 -112 27 -48 27 -48 78 -47 51 0 52 0 29 16 -26 18 -132 157 -132 172 0
5 30 37 66 70 l67 61 -62 0 c-64 0 -72 -5 -43 -26 16 -12 13 -16 -28 -58 -75
-77 -80 -71 -80 99 0 80 -3 144 -7 144 -5 -1 -27 -6 -50 -12z" />
        <path d="M1880 725 c-26 -32 13 -81 48 -59 34 22 22 74 -18 74 -10 0 -23 -7
-30 -15z" />
        <path d="M1470 702 c0 -4 9 -13 20 -20 19 -11 20 -23 20 -192 0 -169 -1 -181
-20 -192 -11 -7 -20 -16 -20 -20 0 -5 53 -8 118 -8 100 0 122 3 150 20 41 25
66 81 57 126 -6 37 -55 84 -87 84 -17 0 -15 4 13 23 70 47 74 121 10 164 -30
21 -46 23 -147 23 -63 0 -114 -3 -114 -8z m217 -48 c21 -21 24 -32 19 -62 -7
-47 -37 -72 -87 -72 l-39 0 0 80 0 80 40 0 c31 0 47 -7 67 -26z m13 -194 c27
-27 34 -62 21 -103 -13 -39 -45 -57 -101 -57 l-40 0 0 90 0 90 50 0 c36 0 55
-5 70 -20z" />
        <path d="M2510 701 c0 -5 7 -15 16 -22 15 -12 16 -34 11 -187 -5 -163 -7 -176
-28 -198 l-22 -24 61 0 c34 0 62 2 62 5 0 3 -9 14 -20 25 -17 17 -20 32 -19
118 1 53 4 124 8 157 l6 60 57 -150 c32 -82 63 -165 69 -183 6 -17 14 -32 18
-32 9 0 142 308 141 328 0 6 3 12 8 12 4 0 8 -67 10 -149 3 -143 3 -150 -17
-163 -35 -22 -24 -28 49 -28 68 0 87 10 54 28 -14 8 -18 40 -26 188 -9 174 -9
179 11 196 31 25 26 29 -31 26 l-51 -3 -48 -120 c-27 -66 -56 -138 -65 -160
l-15 -39 -65 159 c-35 87 -64 160 -64 162 0 2 -25 3 -55 3 -30 0 -55 -4 -55
-9z" />
        <path d="M4690 701 c0 -5 7 -14 15 -21 12 -10 15 -44 15 -188 0 -167 -1 -177
-22 -199 l-21 -23 117 0 c168 0 218 28 220 125 1 53 -30 91 -82 101 l-35 7 30
12 c86 36 83 145 -3 181 -37 16 -234 20 -234 5z m187 -32 c35 -13 43 -25 43
-70 0 -52 -29 -79 -85 -79 l-45 0 0 80 0 80 29 0 c16 0 42 -5 58 -11z m46
-217 c30 -30 30 -94 -1 -124 -17 -17 -34 -22 -74 -23 l-53 0 -3 79 c-2 44 -1
85 2 91 7 19 103 2 129 -23z" />
        <path d="M4354 621 c-22 -21 -47 -40 -55 -43 -18 -7 -7 -19 20 -21 20 -1 21
-7 21 -102 0 -116 12 -170 42 -186 38 -21 118 11 118 48 0 15 -16 17 -25 3 -7
-12 -52 -13 -59 -2 -3 5 -6 60 -7 123 l-2 114 42 3 c52 4 50 26 -2 30 -33 3
-37 6 -37 32 0 42 -11 43 -56 1z" />
        <path d="M3534 596 c-17 -8 -40 -27 -52 -42 l-21 -29 -1 38 c0 41 0 41 -52 27
-48 -14 -56 -27 -24 -40 26 -9 26 -10 26 -125 0 -104 -2 -116 -20 -127 -34
-22 -23 -28 50 -28 73 0 84 6 50 28 -17 11 -20 23 -20 98 0 123 37 178 94 140
22 -14 25 -13 40 3 22 24 20 37 -6 55 -27 19 -25 19 -64 2z" />
        <path d="M5563 602 c-13 -2 -36 -20 -53 -40 l-30 -37 0 39 0 39 -42 -7 c-56
-9 -65 -19 -34 -40 25 -16 26 -19 26 -130 0 -89 -3 -116 -15 -126 -28 -23 -16
-30 50 -30 66 0 81 10 45 30 -18 9 -20 21 -20 93 0 58 5 92 18 117 19 40 54
51 81 26 16 -15 19 -14 36 5 31 33 -7 70 -62 61z" />
        <path d="M6097 595 c-65 -23 -93 -59 -64 -83 15 -13 30 -5 46 26 9 16 21 22
46 22 39 0 65 -28 65 -72 0 -26 -3 -28 -37 -28 -47 0 -118 -32 -132 -58 -17
-32 -13 -87 8 -113 16 -20 29 -24 71 -24 44 0 55 4 76 28 14 16 24 22 24 14 0
-8 9 -22 20 -32 16 -15 26 -17 48 -9 28 10 38 39 12 39 -12 0 -16 21 -20 110
-3 61 -11 120 -18 133 -27 48 -88 67 -145 47z m93 -217 c-4 -46 -9 -55 -34
-67 -26 -12 -33 -12 -55 0 -34 19 -40 68 -11 94 18 16 86 36 100 29 3 -1 3
-26 0 -56z" />
        <path d="M6490 593 c-19 -10 -39 -28 -45 -40 -14 -33 -25 -28 -25 12 0 39 -2
40 -51 24 -45 -16 -46 -17 -21 -35 20 -14 22 -23 22 -129 0 -104 -2 -116 -20
-127 -34 -21 -23 -28 45 -28 64 0 81 10 49 28 -13 7 -15 25 -12 110 3 90 6
103 27 126 30 32 71 34 97 5 16 -18 19 -36 18 -127 -1 -85 -4 -107 -17 -117
-28 -20 -20 -25 48 -25 61 0 84 11 50 24 -12 4 -15 25 -15 93 -1 109 -12 170
-36 193 -29 28 -74 33 -114 13z" />
        <path d="M1883 587 c-43 -16 -49 -24 -24 -32 20 -6 21 -14 21 -130 0 -115 -1
-124 -20 -130 -41 -13 -18 -25 50 -25 39 0 70 2 70 5 0 3 -9 14 -20 25 -18 18
-20 33 -20 160 0 152 1 148 -57 127z" />
        <path d="M2079 576 c-52 -35 -72 -84 -67 -161 7 -106 73 -165 171 -152 75 10
125 65 134 148 7 71 -21 139 -69 169 -48 29 -123 27 -169 -4z m131 -26 c29
-29 40 -63 40 -121 0 -98 -48 -155 -110 -129 -72 30 -91 189 -29 251 25 25 74
24 99 -1z" />
        <path d="M3089 577 c-37 -25 -49 -55 -27 -68 21 -14 26 -11 43 21 13 24 22 30
50 30 39 0 65 -28 65 -72 0 -26 -3 -28 -37 -28 -47 0 -118 -32 -132 -58 -6
-12 -11 -37 -11 -57 0 -82 100 -116 161 -56 16 16 29 24 29 17 0 -7 9 -21 20
-31 16 -15 26 -17 47 -9 33 11 40 30 13 37 -18 5 -20 13 -20 100 0 102 -9 139
-42 175 -30 31 -112 31 -159 -1z m131 -196 c0 -40 -4 -53 -22 -65 -29 -21 -57
-20 -80 1 -45 40 -1 113 68 113 l34 0 0 -49z" />
        <path d="M4058 585 c-80 -44 -101 -197 -37 -278 42 -55 141 -59 199 -10 38 31
27 50 -16 28 -34 -17 -77 -19 -105 -5 -22 12 -49 61 -49 90 0 19 6 20 100 20
l100 0 0 35 c0 47 -22 98 -51 119 -29 20 -104 20 -141 1z m116 -37 c8 -13 16
-36 18 -53 l3 -30 -72 -3 c-68 -3 -73 -2 -73 18 0 26 25 77 42 83 32 13 68 6
82 -15z" />
        <path d="M5139 573 c-17 -15 -38 -42 -45 -60 -18 -42 -18 -137 0 -171 48 -93
161 -109 230 -33 26 28 12 39 -23 18 -33 -19 -83 -22 -113 -6 -11 6 -26 26
-34 44 -26 63 -25 64 88 67 l103 3 -3 40 c-8 83 -49 125 -123 125 -37 0 -55
-6 -80 -27z m125 -22 c9 -10 20 -35 23 -55 l6 -36 -77 0 c-82 0 -89 6 -65 53
31 59 79 75 113 38z" />
        <path d="M6795 590 c-27 -11 -61 -49 -74 -83 -15 -40 -14 -133 3 -165 48 -93
161 -109 230 -33 26 28 12 39 -23 18 -36 -21 -90 -22 -118 -2 -21 15 -50 91
-39 102 3 3 46 5 96 4 49 -1 94 0 99 3 4 3 4 29 0 58 -11 71 -50 108 -112 107
-23 0 -51 -4 -62 -9z m99 -39 c9 -10 20 -35 23 -55 l6 -36 -77 0 c-42 0 -76 4
-76 9 0 18 21 66 37 83 21 23 66 23 87 -1z" />
    </g>
</svg>