<?xml version="1.0" standalone="no"?>
<!DOCTYPE svg
          PUBLIC "-//W3C//DTD SVG 20010904//EN" "http://www.w3.org/TR/2001/REC-SVG-20010904/DTD/svg10.dtd">
<svg version="1.0"
     xmlns="http://www.w3.org/2000/svg"
     width="1024.000000pt"
     height="1024.000000pt"
     viewBox="0 0 1024.000000 1024.000000"
     preserveAspectRatio="xMidYMid meet">

    <g transform="translate(0.000000,1024.000000) scale(0.100000,-0.100000)"
       fill="#ffffff"
       stroke="none">
        <path d="M4440 8556 c-527 -68 -980 -286 -1340 -645 -271 -271 -461 -597 -563
-966 -72 -259 -79 -332 -84 -882 l-5 -493 75 0 75 0 5 508 c5 558 8 591 76
833 117 413 385 810 727 1075 234 182 554 329 834 383 311 60 679 56 987 -10
355 -77 708 -273 984 -549 269 -268 443 -574 493 -864 9 -49 15 -90 13 -91 -1
-1 -41 -14 -89 -29 -290 -89 -482 -374 -465 -691 21 -423 409 -720 820 -629
40 9 110 34 157 56 70 34 100 56 175 132 146 147 200 279 200 491 0 105 -4
131 -29 209 -56 170 -176 311 -331 387 -72 36 -187 68 -240 69 -18 0 -24 13
-43 90 -38 158 -122 359 -207 498 -27 44 -21 57 10 22 24 -26 152 -108 233
-149 90 -45 134 -90 225 -226 142 -212 213 -271 420 -351 155 -59 264 -116
359 -188 41 -31 85 -56 98 -56 22 0 22 2 16 57 -12 104 -46 216 -97 322 -44
89 -63 116 -137 191 -133 134 -228 175 -531 229 -141 26 -178 36 -257 75 -102
49 -195 109 -233 150 -24 25 -24 26 -3 26 11 0 33 -5 49 -11 138 -55 304 -51
483 12 109 37 215 102 315 191 44 39 133 115 198 170 130 110 141 131 80 147
-153 41 -447 8 -608 -68 -55 -26 -180 -115 -315 -227 -67 -55 -128 -87 -198
-104 -114 -27 -205 25 -437 250 -244 237 -383 338 -620 451 -198 94 -417 160
-645 194 -145 22 -496 28 -630 11z m3160 -650 c0 -2 -48 -28 -107 -59 -60 -30
-165 -85 -236 -121 -122 -63 -307 -131 -331 -123 -6 3 3 8 19 12 65 17 183 69
406 180 217 107 249 121 249 111z m-225 -782 c72 -35 169 -93 216 -128 94 -69
229 -192 229 -208 0 -6 -27 15 -60 46 -132 122 -271 217 -449 308 -64 32 -105
56 -91 53 14 -4 84 -35 155 -71z m-617 -428 c61 -57 95 -71 130 -54 22 11 28
21 30 57 l3 43 40 -6 c58 -9 140 -42 195 -78 249 -164 331 -475 198 -748 -71
-144 -233 -275 -384 -309 -66 -15 -217 -13 -283 4 -244 63 -414 272 -433 532
-14 200 84 403 250 514 62 42 161 87 194 88 7 1 34 -19 60 -43z" />
        <path d="M2602 5229 c3 -27 10 -34 57 -53 78 -31 93 -56 102 -173 11 -137 10
-963 -1 -1049 -5 -39 -14 -82 -21 -96 -12 -27 -53 -51 -107 -62 -28 -7 -32
-12 -32 -40 l0 -32 443 1 c419 1 446 3 520 23 203 56 326 175 358 346 14 78
-2 172 -43 249 -53 99 -138 155 -281 186 l-80 17 44 13 c99 30 188 97 234 175
54 93 53 240 -3 340 -50 90 -168 154 -327 177 -33 5 -241 9 -463 9 l-403 0 3
-31z m719 -95 c71 -20 129 -67 160 -131 19 -39 23 -64 23 -138 0 -131 -39
-211 -127 -256 -39 -20 -160 -39 -254 -39 l-53 0 0 290 0 290 97 0 c59 0 119
-6 154 -16z m54 -688 c145 -38 205 -125 205 -296 0 -143 -43 -225 -144 -278
-49 -25 -58 -26 -206 -27 l-155 0 -3 302 -2 302 22 4 c53 10 236 6 283 -7z" />
        <path d="M4072 5229 c3 -28 9 -34 55 -51 112 -41 120 -81 99 -477 -9 -163 -21
-404 -27 -536 -14 -313 -20 -328 -146 -365 -39 -12 -43 -16 -43 -45 l0 -31
248 0 247 1 3 27 c3 23 -2 30 -25 39 -95 37 -115 50 -129 84 -18 44 -18 181 0
525 8 146 18 327 22 403 l6 138 208 -483 c114 -266 232 -539 261 -607 l54
-124 54 0 54 -1 142 324 c78 179 197 453 266 610 l124 285 17 -305 c30 -550
33 -720 15 -763 -15 -36 -56 -63 -138 -90 -11 -4 -15 -14 -12 -34 l5 -29 319
1 319 0 0 31 c0 28 -4 32 -55 48 -60 19 -90 48 -104 105 -6 20 -15 128 -21
241 -6 113 -17 324 -25 470 -19 348 -19 453 1 495 15 32 50 56 109 73 24 7 31
15 33 40 l3 32 -238 0 -238 0 -111 -263 c-61 -144 -165 -391 -230 -549 -65
-158 -121 -288 -124 -288 -3 0 -47 103 -99 228 -52 125 -155 372 -230 550
l-135 322 -269 0 -268 0 3 -31z" />
        <path d="M6192 5229 c3 -29 8 -34 62 -53 47 -16 64 -29 80 -56 21 -34 21 -48
21 -625 0 -570 -1 -591 -20 -630 -17 -35 -28 -43 -80 -60 -54 -18 -60 -23 -63
-51 l-3 -30 443 1 c422 1 447 2 522 23 147 41 260 123 322 235 27 49 29 59 29
162 0 98 -3 116 -27 167 -55 118 -146 184 -300 217 l-81 17 49 19 c117 44 210
128 240 217 21 64 21 182 0 246 -33 97 -119 168 -257 209 -45 14 -126 17 -497
20 l-443 4 3 -32z m717 -94 c75 -23 134 -83 156 -159 25 -85 17 -196 -19 -270
-46 -93 -101 -120 -275 -131 -105 -7 -114 -6 -108 10 4 9 7 140 7 291 l0 274
93 0 c55 0 115 -6 146 -15z m108 -704 c113 -50 158 -143 151 -310 -5 -111 -23
-156 -87 -214 -58 -52 -119 -67 -278 -67 l-133 0 0 304 c0 281 1 305 18 310 9
2 76 4 147 2 110 -2 138 -6 182 -25z" />
        <path d="M6307 3327 c-78 -16 -97 -23 -95 -36 2 -9 12 -17 23 -19 45 -9 45 -9
45 -337 0 -335 1 -327 -53 -340 -17 -5 -27 -14 -27 -26 0 -18 9 -19 145 -19
133 0 145 1 145 18 0 11 -12 22 -34 30 -20 8 -36 21 -40 35 -9 36 -7 179 3
175 5 -1 55 -60 110 -130 l101 -128 85 0 c76 0 85 2 85 18 0 11 -13 24 -32 33
-22 9 -61 51 -116 124 -46 61 -87 117 -92 127 -13 22 96 129 168 164 86 43 71
54 -73 54 -105 0 -125 -2 -125 -15 0 -9 11 -20 25 -25 14 -5 25 -17 25 -26 0
-9 -38 -56 -85 -103 l-85 -86 1 264 c0 144 -1 264 -3 265 -2 2 -47 -6 -101
-17z" />
        <path d="M3133 3310 c-46 -19 -57 -83 -20 -118 47 -44 127 -14 127 47 0 54
-57 92 -107 71z" />
        <path d="M2360 3262 c0 -15 9 -22 31 -27 19 -4 34 -16 40 -32 11 -29 11 -549
0 -577 -4 -11 -23 -25 -42 -31 -19 -7 -36 -20 -37 -29 -4 -17 10 -18 210 -14
197 3 217 6 266 27 93 42 141 124 127 218 -10 71 -56 110 -165 141 -26 7 -29
10 -12 11 36 2 97 46 115 84 25 51 22 127 -5 167 -46 67 -77 75 -315 78 -207
3 -213 3 -213 -16z m368 -58 c72 -50 67 -183 -7 -227 -19 -11 -51 -17 -90 -17
l-61 0 0 130 0 130 68 0 c45 0 75 -5 90 -16z m29 -327 c48 -25 66 -68 61 -140
-4 -53 -8 -64 -37 -88 -37 -31 -69 -39 -152 -39 l-59 0 0 146 0 147 78 -5 c44
-3 91 -12 109 -21z" />
        <path d="M4190 3260 c0 -11 6 -20 14 -20 7 0 26 -10 41 -22 l28 -22 -8 -170
c-16 -393 -21 -417 -86 -431 -20 -5 -29 -13 -29 -26 0 -18 8 -19 130 -19 121
0 130 1 130 19 0 14 -10 21 -35 25 -20 4 -39 16 -46 27 -7 15 -9 91 -3 255 6
214 13 264 27 217 9 -30 228 -528 235 -535 4 -4 16 -5 28 -2 15 4 47 69 138
282 66 152 122 280 125 284 7 8 16 -216 16 -392 l0 -115 -37 -18 c-21 -10 -38
-25 -38 -33 0 -11 28 -14 155 -14 144 0 155 1 155 19 0 12 -11 21 -32 27 -19
6 -38 20 -45 34 -6 14 -19 148 -29 299 l-18 273 23 19 c13 11 29 19 37 19 8 0
14 9 14 20 0 20 -5 21 -107 18 l-108 -3 -112 -265 -112 -265 -21 50 c-12 28
-63 147 -114 265 l-92 215 -112 3 c-107 3 -112 2 -112 -18z" />
        <path d="M7505 3204 c-8 -20 -15 -40 -15 -44 0 -17 -45 -62 -81 -80 -30 -16
-39 -26 -39 -45 0 -24 2 -25 40 -19 l40 7 0 -192 c0 -210 7 -246 56 -277 44
-30 122 -24 180 12 36 22 50 37 52 57 4 32 2 33 -45 7 -46 -25 -65 -25 -92 -2
-20 16 -21 27 -22 202 l-1 185 76 3 76 3 0 30 0 30 -77 -2 -76 -2 2 81 2 82
-30 0 c-26 0 -33 -6 -46 -36z" />
        <path d="M3112 3071 c-46 -9 -83 -20 -82 -24 0 -4 0 -11 0 -16 0 -5 12 -12 27
-16 15 -3 31 -12 35 -18 4 -7 8 -92 8 -189 0 -191 -3 -201 -56 -214 -15 -4
-24 -13 -24 -25 0 -18 9 -19 145 -19 138 0 145 1 145 20 0 12 -7 20 -18 20
-10 0 -28 7 -40 16 -22 15 -22 19 -22 250 0 217 -1 234 -17 233 -10 -1 -55 -9
-101 -18z" />
        <path d="M3550 3081 c-81 -25 -149 -92 -176 -174 -22 -66 -15 -176 14 -233 29
-56 102 -119 157 -134 61 -17 152 -8 210 21 82 41 132 120 142 222 16 172
-101 308 -262 306 -33 0 -71 -4 -85 -8z m149 -76 c86 -73 90 -306 5 -386 -20
-18 -37 -24 -74 -24 -76 0 -111 42 -129 156 -19 115 15 239 71 267 41 20 94
14 127 -13z" />
        <path d="M5345 3077 c-85 -22 -130 -58 -141 -114 -8 -39 24 -76 63 -71 22 3
28 11 38 52 7 27 21 56 31 63 28 20 100 17 123 -6 21 -21 39 -108 25 -120 -5
-5 -43 -18 -84 -31 -160 -47 -216 -99 -207 -193 4 -43 10 -56 42 -85 35 -33
40 -34 100 -30 48 3 75 11 112 34 l48 30 20 -30 c18 -27 27 -31 72 -34 45 -3
56 1 84 26 29 26 32 32 20 46 -10 12 -17 14 -25 6 -15 -15 -43 -12 -50 6 -3 9
-6 87 -6 173 0 146 -2 161 -23 202 -13 24 -38 52 -55 62 -40 24 -124 30 -187
14z m145 -323 c0 -62 -2 -68 -34 -100 -60 -60 -136 -41 -136 34 0 63 31 93
120 118 25 7 46 13 48 13 1 1 2 -29 2 -65z" />
        <path d="M5815 3071 c-89 -18 -109 -40 -53 -56 33 -10 33 -10 42 -93 4 -46 4
-133 0 -195 l-9 -112 -37 -18 c-21 -10 -38 -25 -38 -33 0 -11 27 -14 150 -14
143 0 150 1 150 20 0 13 -7 20 -19 20 -10 0 -28 8 -39 18 -18 15 -21 34 -27
133 -7 130 2 184 37 216 44 40 64 38 93 -6 32 -48 51 -56 81 -37 28 19 39 66
24 111 -14 41 -44 65 -83 65 -38 0 -64 -14 -114 -63 l-43 -41 0 52 c0 60 6 58
-115 33z" />
        <path d="M7001 3073 c-131 -46 -198 -224 -141 -376 37 -99 124 -160 230 -160
74 -1 126 21 178 74 59 60 35 86 -36 39 -43 -29 -53 -31 -109 -28 -49 3 -68 9
-89 28 -32 30 -63 95 -64 133 l0 27 165 0 165 0 0 63 c-1 167 -136 257 -299
200z m144 -67 c25 -25 39 -76 33 -117 -3 -23 -6 -24 -105 -27 -103 -3 -103 -3
-103 21 0 39 21 90 48 120 34 36 92 38 127 3z" />
        <path d="M4817 2256 c-76 -15 -97 -22 -95 -34 2 -9 18 -20 36 -24 l32 -9 0
-313 c0 -173 -3 -321 -6 -330 -3 -8 -21 -18 -40 -22 -24 -4 -34 -12 -34 -25 0
-18 9 -19 144 -19 120 0 145 3 150 15 3 9 0 18 -7 20 -60 21 -64 25 -71 55
-11 57 -7 172 6 168 6 -2 55 -60 108 -129 l96 -124 87 -3 c82 -3 87 -2 87 18
0 11 -6 20 -14 20 -27 0 -71 47 -156 166 l-84 117 69 64 c39 35 91 73 117 86
29 13 47 29 48 40 0 15 -12 17 -125 17 -116 0 -125 -1 -125 -19 0 -12 9 -21
25 -25 42 -11 30 -38 -57 -131 l-83 -88 -5 264 -5 264 -98 -19z" />
        <path d="M3040 2195 c0 -8 16 -21 35 -29 22 -9 39 -26 46 -43 6 -17 9 -125 7
-296 -3 -269 -3 -269 -27 -288 -13 -10 -32 -19 -42 -19 -12 0 -19 -7 -19 -20
0 -19 7 -20 183 -20 206 0 279 13 337 59 71 56 97 149 64 231 -18 45 -57 73
-126 90 l-47 12 49 25 c67 33 90 73 90 153 0 59 -2 64 -38 100 -21 21 -55 43
-77 49 -23 6 -124 11 -237 11 -169 0 -198 -2 -198 -15z m369 -59 c34 -18 51
-54 51 -111 0 -94 -44 -135 -142 -135 l-58 0 0 130 0 130 60 0 c34 0 73 -6 89
-14z m2 -316 c60 -17 83 -51 87 -128 3 -58 1 -71 -19 -96 -31 -39 -77 -56
-154 -56 l-65 0 0 145 0 145 58 0 c31 0 73 -5 93 -10z" />
        <path d="M3927 2019 c-58 -14 -91 -34 -134 -83 -48 -55 -63 -101 -63 -197 0
-90 28 -158 85 -208 51 -44 93 -61 156 -61 81 0 129 19 183 73 44 44 47 50 33
64 -14 14 -18 14 -46 -10 -41 -34 -94 -50 -146 -45 -73 9 -118 56 -134 142
l-8 46 166 2 166 3 3 47 c10 154 -115 263 -261 227z m96 -70 c29 -22 51 -81
45 -119 -3 -25 -5 -25 -109 -28 l-107 -3 9 46 c11 57 22 78 55 104 34 27 74
27 107 0z" />
        <path d="M4555 2011 c-23 -10 -53 -32 -67 -50 -15 -17 -29 -31 -31 -31 -3 0
-2 20 1 45 6 53 8 53 -121 29 -71 -13 -87 -19 -85 -33 2 -9 14 -17 28 -19 46
-6 50 -24 50 -203 0 -92 -4 -179 -10 -194 -6 -17 -20 -27 -40 -31 -21 -5 -30
-12 -30 -25 0 -18 10 -19 145 -19 138 0 145 1 145 20 0 12 -7 20 -18 20 -10 0
-28 7 -40 16 -21 14 -22 21 -22 166 l0 150 39 39 c21 22 43 39 49 39 6 0 19
-11 29 -25 46 -66 49 -68 75 -62 69 18 60 150 -13 176 -40 14 -36 14 -84 -8z" />
        <path d="M6805 2023 c-93 -21 -155 -69 -191 -148 -29 -60 -32 -167 -9 -236 49
-143 216 -211 352 -144 62 31 111 89 93 110 -9 11 -19 8 -56 -18 -40 -28 -54
-32 -109 -32 -48 0 -70 5 -92 21 -34 24 -73 98 -73 136 l0 28 163 2 162 3 3
55 c6 97 -27 164 -96 199 -39 20 -114 32 -147 24z m74 -67 c34 -18 51 -54 51
-111 l0 -45 -106 0 -107 0 7 42 c17 102 83 151 155 114z" />
        <path d="M5500 2011 c-46 -14 -87 -40 -104 -65 -34 -53 -10 -116 46 -116 28 0
38 16 38 59 0 34 25 59 68 67 71 14 112 -25 112 -105 l0 -40 -87 -26 c-149
-45 -213 -100 -213 -182 0 -122 136 -172 260 -95 27 17 50 27 50 21 0 -5 11
-21 25 -34 40 -41 120 -30 168 23 15 16 16 21 3 31 -11 10 -19 9 -36 -1 -18
-11 -23 -10 -36 6 -11 15 -14 56 -14 180 0 142 -2 165 -21 203 -29 60 -76 83
-166 82 -37 0 -79 -4 -93 -8z m160 -332 c-5 -64 -8 -74 -38 -100 -63 -57 -132
-30 -132 52 0 46 37 85 94 100 22 5 46 12 51 14 27 10 30 2 25 -66z" />
        <path d="M5993 2003 c-59 -13 -73 -19 -73 -34 0 -13 7 -19 23 -19 44 0 47 -13
47 -211 0 -183 -1 -188 -22 -203 -12 -9 -30 -16 -40 -16 -11 0 -18 -8 -18 -20
0 -19 7 -20 145 -20 138 0 145 1 145 20 0 13 -7 20 -19 20 -10 0 -28 8 -40 18
-19 16 -21 28 -23 164 -1 124 1 150 16 173 35 53 110 80 156 55 31 -16 40 -67
40 -221 0 -136 -2 -151 -20 -169 -11 -11 -29 -20 -40 -20 -13 0 -20 -7 -20
-20 0 -19 7 -20 145 -20 138 0 145 1 145 20 0 13 -7 20 -18 20 -10 0 -27 6
-38 14 -17 13 -19 31 -24 198 -4 150 -9 189 -23 216 -27 49 -71 72 -140 72
-67 0 -112 -16 -147 -53 -14 -15 -27 -27 -30 -27 -3 0 -4 18 -2 40 4 38 3 40
-24 39 -16 -1 -62 -8 -101 -16z" />
    </g>
</svg>