<?xml version="1.0" standalone="no"?>
<!DOCTYPE svg
          PUBLIC "-//W3C//DTD SVG 20010904//EN" "http://www.w3.org/TR/2001/REC-SVG-20010904/DTD/svg10.dtd">
<svg version="1.0"
     xmlns="http://www.w3.org/2000/svg"
     width="1024.000000pt"
     height="1024.000000pt"
     viewBox="0 0 1024.000000 1024.000000"
     preserveAspectRatio="xMidYMid meet">

    <g transform="translate(0.000000,1024.000000) scale(0.100000,-0.100000)"
       fill="#ffffff"
       stroke="none">
        <path d="M4945 9194 c-699 -52 -1312 -385 -1726 -939 -233 -312 -383 -700
-429 -1110 -6 -56 -10 -686 -10 -1672 l0 -1583 50 0 49 0 4 1633 c3 1791 -1
1669 62 1917 203 797 838 1415 1638 1594 185 42 323 56 538 56 391 0 682 -64
1007 -220 689 -332 1146 -983 1227 -1748 12 -114 15 -398 15 -1679 l0 -1543
50 0 51 0 -4 1613 c-3 1757 0 1657 -59 1912 -75 324 -257 690 -467 939 -376
447 -880 724 -1476 812 -97 14 -419 26 -520 18z" />
        <path d="M3520 7917 c0 -8 16 -27 35 -41 21 -16 39 -41 45 -64 8 -25 10 -184
8 -490 l-3 -454 -30 -24 c-52 -41 -65 -54 -65 -64 0 -16 531 -13 611 4 124 27
206 81 254 168 27 48 30 61 30 149 0 89 -2 99 -30 144 -35 57 -105 108 -180
131 l-54 17 42 19 c52 24 102 71 130 123 16 30 22 58 22 115 0 64 -4 82 -28
123 -34 58 -109 110 -192 133 -86 24 -595 34 -595 11z m494 -73 c59 -20 108
-68 124 -121 18 -59 15 -151 -7 -198 -36 -78 -85 -101 -235 -111 l-106 -7 0
227 0 226 88 0 c55 0 106 -6 136 -16z m-42 -504 c164 -20 238 -98 238 -250 0
-159 -81 -238 -261 -254 -36 -3 -86 -3 -112 0 l-47 7 0 252 0 252 53 2 c28 0
87 -3 129 -9z" />
        <path d="M4550 7913 c0 -11 16 -25 40 -36 71 -33 74 -47 66 -317 -4 -129 -9
-264 -11 -300 -3 -36 -7 -132 -11 -215 -6 -167 -10 -179 -74 -221 -72 -48 -59
-54 125 -54 139 0 165 2 165 15 0 8 -23 26 -51 40 -85 43 -84 37 -70 475 7
206 15 392 18 414 5 35 23 -12 168 -441 89 -264 165 -485 169 -491 4 -7 19
-12 34 -12 27 0 29 4 186 480 88 265 162 483 166 485 4 3 11 -79 15 -183 4
-103 9 -198 11 -212 1 -14 6 -120 10 -237 8 -238 5 -251 -62 -279 -22 -9 -34
-21 -34 -34 0 -19 7 -20 195 -20 184 0 195 1 195 19 0 11 -12 23 -30 31 -39
16 -68 53 -74 94 -3 17 -10 130 -15 251 -6 121 -16 312 -22 425 -12 231 -10
244 49 300 l37 35 -144 3 c-79 1 -145 1 -147 -1 -3 -2 -67 -190 -145 -418 -77
-227 -141 -414 -142 -415 -1 -1 -39 106 -84 239 -45 133 -109 322 -143 420
l-62 177 -164 0 c-150 0 -164 -2 -164 -17z" />
        <path d="M5880 7920 c0 -6 21 -31 46 -53 l46 -42 1 -470 c0 -515 2 -498 -60
-532 -18 -10 -33 -25 -33 -35 0 -17 18 -18 276 -18 298 0 348 6 449 57 126 62
184 180 164 329 -14 100 -93 182 -214 220 l-54 17 37 17 c53 24 109 76 135
124 16 31 22 59 22 117 0 67 -3 81 -30 125 -34 54 -105 103 -190 131 -65 21
-595 33 -595 13z m483 -74 c105 -31 146 -92 147 -214 0 -82 -15 -125 -56 -163
-41 -37 -85 -49 -199 -52 l-100 -2 -3 223 -2 222 83 0 c46 0 104 -6 130 -14z
m37 -517 c101 -23 168 -101 177 -208 11 -115 -33 -208 -118 -251 -41 -21 -139
-38 -204 -34 -22 1 -52 3 -67 3 l-28 1 0 255 0 254 98 -5 c53 -3 117 -10 142
-15z" />
        <path d="M5930 6477 c-259 -120 -429 -249 -514 -390 -19 -32 -51 -111 -71
-175 -20 -64 -40 -121 -44 -125 -4 -4 -20 23 -36 60 -52 125 -123 220 -209
284 -49 37 -72 37 -91 0 -19 -38 -13 -53 35 -85 72 -47 173 -202 194 -297 5
-25 3 -27 -41 -33 -25 -3 -74 -6 -109 -6 -255 0 -545 -164 -704 -399 -142
-210 -180 -507 -98 -761 75 -234 236 -421 451 -524 144 -69 293 -97 473 -91
235 9 417 79 572 220 217 198 324 478 293 769 -26 243 -132 445 -310 592 -70
59 -219 139 -276 150 -19 3 -35 10 -35 14 0 4 28 20 63 35 127 56 219 119 329
224 112 107 176 188 221 276 40 82 98 254 95 283 -5 46 -54 40 -188 -21z
m-753 -868 l28 -11 -25 -10 c-38 -14 -70 -49 -70 -74 0 -30 33 -49 59 -34 28
14 64 12 111 -6 32 -13 43 -14 55 -4 23 19 18 55 -12 91 l-28 32 52 -6 c71 -8
188 -59 271 -117 240 -168 361 -472 311 -780 -41 -257 -234 -505 -464 -599
-99 -40 -154 -51 -285 -57 -282 -14 -476 53 -646 221 -119 118 -196 261 -224
415 -17 92 -14 252 5 340 47 214 210 416 420 523 131 66 365 106 442 76z" />
        <path d="M6490 3555 c-25 -7 -64 -19 -87 -25 -51 -13 -54 -29 -13 -52 17 -9
35 -29 40 -43 6 -16 10 -166 10 -366 l0 -340 -23 -22 c-13 -12 -32 -27 -42
-33 -42 -24 -5 -34 121 -34 104 0 124 2 124 15 0 9 -11 20 -24 26 -35 16 -46
50 -46 144 0 83 0 84 32 106 31 23 31 23 45 3 7 -11 57 -81 111 -155 l98 -134
87 -3 c104 -3 109 5 34 64 -44 34 -264 295 -266 315 -2 16 179 151 224 168 83
31 69 41 -58 41 -64 0 -122 3 -131 6 -11 4 -16 0 -16 -14 0 -14 8 -22 22 -24
13 -2 24 -10 26 -19 3 -16 -62 -84 -153 -158 l-50 -41 -3 295 c-1 162 -6 295
-10 294 -4 0 -27 -6 -52 -14z" />
        <path d="M3075 3478 c-45 -26 -58 -75 -30 -115 31 -44 111 -37 134 13 16 36
14 50 -11 78 -27 30 -66 40 -93 24z" />
        <path d="M4234 3481 c-7 -7 18 -31 31 -31 8 0 23 -12 36 -27 22 -28 22 -28 15
-346 -4 -175 -11 -329 -16 -343 -5 -13 -26 -34 -45 -45 -66 -39 -48 -49 90
-49 105 0 125 2 125 15 0 9 -11 20 -24 25 -13 4 -33 21 -45 36 -21 26 -22 35
-19 238 2 189 11 392 16 358 1 -7 66 -161 143 -343 109 -253 146 -329 159
-329 18 0 28 26 265 624 l23 59 7 -114 c15 -251 21 -436 15 -464 -4 -20 -18
-38 -43 -54 -68 -44 -53 -51 113 -51 117 0 150 3 150 13 0 7 -16 21 -35 30
-20 9 -39 27 -44 39 -9 26 -31 440 -31 591 0 96 1 99 30 129 17 16 30 33 30
36 0 4 -45 6 -100 4 l-99 -3 -60 -152 c-96 -246 -181 -474 -181 -486 0 -36
-23 6 -75 137 -32 81 -92 227 -133 324 l-74 177 -110 3 c-60 2 -112 1 -114 -1z" />
        <path d="M2240 3476 c0 -4 16 -20 35 -37 l35 -31 0 -344 0 -343 -35 -28 c-66
-53 -57 -56 178 -50 236 5 286 14 359 70 55 42 88 106 88 172 -1 98 -50 161
-155 197 -41 14 -46 18 -30 24 83 31 135 101 135 181 0 79 -56 145 -149 174
-38 13 -461 26 -461 15z m394 -70 c100 -42 104 -220 6 -271 -17 -9 -68 -18
-115 -21 l-85 -6 0 155 c0 140 2 156 18 161 29 9 139 -2 176 -18z m-9 -357
c118 -32 169 -148 113 -259 -32 -63 -88 -89 -207 -97 l-91 -6 0 187 0 186 73
0 c39 0 90 -5 112 -11z" />
        <path d="M7770 3373 c-29 -66 -64 -109 -110 -135 -52 -30 -52 -48 0 -48 l40 0
0 -222 c0 -199 3 -228 20 -266 23 -51 64 -72 138 -72 36 0 59 7 87 26 72 49
95 104 29 69 -16 -8 -48 -15 -71 -15 -33 0 -46 5 -62 26 -20 25 -21 39 -21
240 l0 214 84 0 c75 0 84 2 89 20 3 11 2 22 -2 24 -3 2 -43 4 -89 3 l-82 -2 0
93 c0 108 -16 122 -50 45z" />
        <path d="M3061 3224 c-46 -12 -85 -25 -88 -27 -4 -5 -2 -8 55 -53 l32 -26 0
-197 c0 -210 0 -212 -53 -245 -47 -29 -23 -37 104 -35 116 1 151 11 114 31
-56 32 -55 27 -55 313 0 206 -3 265 -12 264 -7 -1 -51 -12 -97 -25z" />
        <path d="M3509 3237 c-131 -49 -199 -152 -199 -303 0 -120 58 -222 154 -271
73 -38 189 -43 268 -14 101 39 160 115 179 234 24 150 -30 275 -145 334 -62
32 -197 42 -257 20z m199 -64 c53 -39 76 -98 80 -203 6 -146 -23 -222 -103
-267 -159 -90 -290 107 -230 342 18 69 38 101 86 133 28 20 43 23 87 20 32 -3
64 -13 80 -25z" />
        <path d="M5445 3232 c-43 -20 -99 -77 -110 -112 -10 -33 0 -35 37 -7 54 40 94
57 138 57 83 0 134 -53 128 -132 l-3 -41 -98 -33 c-155 -52 -216 -99 -224
-177 -10 -90 54 -157 149 -157 48 0 121 30 156 62 18 18 22 19 22 6 0 -9 14
-28 31 -42 52 -44 121 -32 183 33 37 39 29 48 -25 27 -38 -16 -43 -16 -60 -1
-15 15 -18 39 -21 213 -3 220 -8 238 -75 289 -31 24 -47 28 -112 31 -58 2 -86
-2 -116 -16z m195 -376 l0 -95 -37 -28 c-28 -22 -47 -28 -86 -28 -42 0 -52 4
-74 29 -21 24 -24 37 -20 69 7 53 29 72 128 113 46 18 85 34 87 34 1 0 2 -43
2 -94z" />
        <path d="M6020 3235 c-25 -8 -64 -19 -87 -25 -51 -13 -54 -23 -12 -40 57 -24
60 -36 57 -261 l-3 -204 -37 -20 c-69 -37 -51 -45 101 -45 80 0 142 4 146 10
3 5 -11 17 -32 27 -57 27 -63 48 -63 216 0 165 8 197 59 240 40 34 65 34 95 2
28 -30 40 -31 66 -5 26 26 25 60 -1 94 -44 56 -149 24 -196 -59 l-23 -40 0 63
c0 69 1 68 -70 47z" />
        <path d="M7206 3235 c-57 -20 -107 -65 -141 -126 -25 -46 -30 -68 -33 -145 -3
-64 0 -107 12 -145 62 -214 359 -259 486 -73 36 52 24 66 -25 28 -74 -56 -155
-67 -235 -33 -56 24 -91 64 -114 132 -31 93 -43 87 184 87 l200 0 0 58 c0 105
-65 195 -161 222 -47 14 -127 12 -173 -5z m159 -57 c33 -26 55 -75 55 -123 l0
-35 -139 0 -139 0 8 33 c16 69 55 124 100 140 36 13 88 6 115 -15z" />
        <path d="M4926 2401 c-49 -15 -91 -31 -93 -37 -2 -6 10 -17 27 -24 17 -7 35
-21 40 -31 6 -10 10 -168 10 -383 l0 -366 -40 -20 c-22 -11 -40 -25 -40 -30 0
-6 55 -10 140 -10 144 0 165 7 110 35 -43 22 -50 43 -50 143 0 80 2 91 24 111
l24 22 106 -155 107 -156 89 0 c53 0 90 4 90 10 0 5 -18 22 -40 36 -59 39
-276 314 -266 339 10 26 171 145 218 161 27 9 48 22 48 30 0 11 -24 14 -125
14 -98 0 -125 -3 -125 -13 0 -8 11 -19 25 -25 14 -6 25 -17 25 -24 0 -13 -151
-161 -182 -179 -17 -9 -18 7 -18 286 0 162 -3 294 -7 294 -5 -1 -48 -13 -97
-28z" />
        <path d="M3000 2332 c0 -5 16 -22 35 -36 l35 -27 0 -345 0 -345 -26 -24 c-15
-14 -31 -25 -35 -25 -5 0 -9 -7 -9 -16 0 -14 24 -15 223 -12 197 4 228 6 275
25 115 46 165 112 165 218 0 37 -7 74 -17 93 -22 44 -86 87 -146 102 l-49 12
57 29 c121 61 145 188 53 280 -59 59 -112 71 -353 76 -135 4 -208 2 -208 -5z
m400 -68 c53 -31 74 -67 74 -127 1 -68 -16 -106 -60 -136 -30 -21 -51 -26
-125 -29 l-89 -4 0 162 0 163 83 -5 c59 -3 94 -10 117 -24z m39 -376 c118 -60
120 -242 4 -306 -34 -18 -59 -23 -140 -25 l-98 -2 -3 170 c-1 93 0 175 2 182
9 22 182 8 235 -19z" />
        <path d="M3987 2099 c-144 -23 -237 -162 -224 -335 9 -122 58 -203 149 -248
127 -63 302 -11 365 107 16 31 10 47 -11 32 -74 -55 -98 -67 -150 -72 -40 -4
-68 -1 -101 11 -75 29 -135 118 -135 200 l0 26 201 0 201 0 -4 64 c-6 91 -44
152 -118 188 -64 31 -107 37 -173 27z m112 -65 c28 -20 60 -88 61 -126 l0 -28
-140 0 c-77 0 -140 4 -140 8 0 32 37 106 66 132 28 24 44 30 82 30 28 0 57 -7
71 -16z" />
        <path d="M4450 2075 c-47 -12 -85 -26 -85 -30 0 -3 18 -19 40 -34 l40 -27 3
-206 2 -206 -26 -21 c-15 -12 -33 -21 -40 -21 -8 0 -14 -7 -14 -15 0 -13 23
-15 145 -15 145 0 177 8 118 31 -62 23 -63 26 -63 221 l0 178 33 35 c45 48 79
54 111 20 29 -31 57 -28 74 11 17 35 15 47 -9 78 -16 20 -29 26 -60 26 -56 0
-95 -24 -130 -78 l-29 -46 0 62 c0 44 -4 62 -12 61 -7 -1 -51 -12 -98 -24z" />
        <path d="M5631 2078 c-45 -22 -101 -88 -101 -120 0 -24 6 -23 44 9 42 35 87
53 136 53 82 0 120 -41 120 -128 l0 -48 -68 -17 c-210 -54 -296 -153 -236
-269 36 -70 142 -89 234 -43 27 13 51 29 55 35 9 15 25 12 25 -4 0 -26 50 -56
92 -56 45 0 83 17 117 54 29 31 22 44 -14 28 -14 -7 -34 -12 -44 -12 -41 0
-46 24 -51 234 -5 190 -6 203 -28 234 -36 49 -89 72 -169 72 -50 0 -80 -6
-112 -22z m199 -372 c0 -95 0 -95 -31 -117 -18 -13 -52 -24 -81 -27 -41 -4
-53 -1 -73 18 -30 29 -34 93 -7 126 22 28 106 69 190 93 1 1 2 -41 2 -93z" />
        <path d="M6183 2075 c-45 -11 -85 -24 -89 -27 -3 -4 13 -18 35 -33 l41 -25 -2
-218 -3 -217 -32 -15 c-65 -30 -41 -40 92 -40 82 0 125 4 125 11 0 6 -13 22
-30 36 l-30 25 0 192 c0 187 1 193 23 214 67 63 185 54 222 -18 13 -24 15 -64
13 -212 l-3 -183 -32 -20 c-60 -38 -44 -45 97 -45 78 0 130 4 130 10 0 5 -12
17 -27 27 -16 10 -31 22 -35 28 -4 5 -8 98 -8 205 0 168 -3 201 -19 236 -28
63 -72 88 -157 92 -76 4 -129 -14 -168 -57 -28 -30 -36 -26 -36 19 0 46 5 45
-107 15z" />
        <path d="M6949 2072 c-61 -32 -112 -93 -131 -155 -20 -69 -16 -214 8 -267 50
-108 130 -160 249 -160 104 0 173 38 244 132 24 32 1 40 -35 13 -97 -74 -218
-73 -296 2 -30 29 -68 118 -68 158 l0 25 201 0 201 0 -4 64 c-8 135 -100 216
-243 216 -60 0 -82 -5 -126 -28z m189 -38 c29 -20 62 -85 62 -124 l0 -30 -140
0 c-77 0 -140 4 -140 8 0 32 37 106 66 132 28 24 44 30 82 30 27 0 57 -7 70
-16z" />
    </g>
</svg>